<!DOCTYPE svg PUBLIC "-//W3C//DTD SVG 1.1//EN" "http://www.w3.org/Graphics/SVG/1.1/DTD/svg11.dtd">

<!-- Uploaded to: SVG Repo, www.svgrepo.com, Transformed by: SVG Repo Mixer Tools -->
<svg width="800px" height="800px" viewBox="-8.4 -8.4 40.80 40.80" xmlns:rdf="http://www.w3.org/1999/02/22-rdf-syntax-ns#" xmlns="http://www.w3.org/2000/svg" version="1.1" xmlns:cc="http://creativecommons.org/ns#" xmlns:dc="http://purl.org/dc/elements/1.1/" fill="#000000">

<g id="SVGRepo_bgCarrier" stroke-width="0" transform="translate(0,0), scale(1)">

<path transform="translate(-8.4, -8.4), scale(2.55)" fill="#7ed0ec" d="M9.166.33a2.25 2.25 0 00-2.332 0l-5.25 3.182A2.25 2.25 0 00.5 5.436v5.128a2.25 2.25 0 001.084 1.924l5.25 3.182a2.25 2.25 0 002.332 0l5.25-3.182a2.25 2.25 0 001.084-1.924V5.436a2.25 2.25 0 00-1.084-1.924L9.166.33z" strokewidth="0"/>

</g>

<g id="SVGRepo_tracerCarrier" stroke-linecap="round" stroke-linejoin="round"/>

<g id="SVGRepo_iconCarrier"> <g transform="translate(0 -1028.4)"> <path d="m3 1035.4v2 1 3 1 5 1c0 1.1 0.8954 2 2 2h14c1.105 0 2-0.9 2-2v-1-5-4-3h-18z" fill="#16a085"/> <path d="m3 1034.4v2 1 3 1 5 1c0 1.1 0.8954 2 2 2h14c1.105 0 2-0.9 2-2v-1-5-4-3h-18z" fill="#ecf0f1"/> <path d="m3 1033.4v2 1 3 1 5 1c0 1.1 0.8954 2 2 2h14c1.105 0 2-0.9 2-2v-1-5-4-3h-18z" fill="#bdc3c7"/> <path d="m3 1032.4v2 1 3 1 5 1c0 1.1 0.8954 2 2 2h14c1.105 0 2-0.9 2-2v-1-5-4-3h-18z" fill="#ecf0f1"/> <path d="m5 1028.4c-1.1046 0-2 0.9-2 2v1 4 2 1 3 1 5 1c0 1.1 0.8954 2 2 2h2v-1h-1.5c-0.8284 0-1.5-0.7-1.5-1.5 0-0.9 0.6716-1.5 1.5-1.5h12.5 1c1.105 0 2-0.9 2-2v-1-5-4-3-1c0-1.1-0.895-2-2-2h-4-10z" fill="#16a085"/> <path d="m8 1028.4v18h1 9 1c1.105 0 2-0.9 2-2v-1-5-4-3-1c0-1.1-0.895-2-2-2h-4-6-1z" fill="#1abc9c"/> <path d="m7 1048.4v2 2l2.5-2 2.5 2v-2-2h-5z" fill="#e74c3c"/> <rect height="1" width="5" y="1047.4" x="7" fill="#c0392b"/> </g> </g>

</svg>