<!DOCTYPE svg PUBLIC "-//W3C//DTD SVG 1.1//EN" "http://www.w3.org/Graphics/SVG/1.1/DTD/svg11.dtd">

<!-- Uploaded to: SVG Repo, www.svgrepo.com, Transformed by: SVG Repo Mixer Tools -->
<svg width="800px" height="800px" viewBox="-8.4 -8.4 40.80 40.80" fill="none" xmlns="http://www.w3.org/2000/svg">

<g id="SVGRepo_bgCarrier" stroke-width="0">

<path transform="translate(-8.4, -8.4), scale(2.55)" fill="#7ed0ec" d="M9.166.33a2.25 2.25 0 00-2.332 0l-5.25 3.182A2.25 2.25 0 00.5 5.436v5.128a2.25 2.25 0 001.084 1.924l5.25 3.182a2.25 2.25 0 002.332 0l5.25-3.182a2.25 2.25 0 001.084-1.924V5.436a2.25 2.25 0 00-1.084-1.924L9.166.33z" strokewidth="0"/>

</g>

<g id="SVGRepo_tracerCarrier" stroke-linecap="round" stroke-linejoin="round"/>

<g id="SVGRepo_iconCarrier"> <path d="M7 14.3333C7 13.0872 7 12.4641 7.26795 12C7.44349 11.696 7.69596 11.4435 8 11.2679C8.4641 11 9.08718 11 10.3333 11H13.6667C14.9128 11 15.5359 11 16 11.2679C16.304 11.4435 16.5565 11.696 16.7321 12C17 12.4641 17 13.0872 17 14.3333V16C17 16.9293 17 17.394 16.9231 17.7804C16.6075 19.3671 15.3671 20.6075 13.7804 20.9231C13.394 21 12.9293 21 12 21C11.0707 21 10.606 21 10.2196 20.9231C8.63288 20.6075 7.39249 19.3671 7.07686 17.7804C7 17.394 7 16.9293 7 16V14.3333Z" fill="#2A4157" fill-opacity="0.24" stroke="#222222" stroke-width="1.2"/> <path d="M9 9C9 8.06812 9 7.60218 9.15224 7.23463C9.35523 6.74458 9.74458 6.35523 10.2346 6.15224C10.6022 6 11.0681 6 12 6C12.9319 6 13.3978 6 13.7654 6.15224C14.2554 6.35523 14.6448 6.74458 14.8478 7.23463C15 7.60218 15 8.06812 15 9V11H9V9Z" fill="#2A4157" fill-opacity="0.24" stroke="#222222" stroke-width="1.2"/> <path d="M12 11V15" stroke="#222222" stroke-width="1.2"/> <path d="M15 3L13 6" stroke="#222222" stroke-width="1.2"/> <path d="M9 3L11 6" stroke="#222222" stroke-width="1.2"/> <path d="M7 16H2" stroke="#222222" stroke-width="1.2"/> <path d="M22 16H17" stroke="#222222" stroke-width="1.2"/> <path d="M20 9V10C20 11.6569 18.6569 13 17 13V13" stroke="#222222" stroke-width="1.2"/> <path d="M20 22V22C20 20.3431 18.6569 19 17 19V19" stroke="#222222" stroke-width="1.2"/> <path d="M4 9V10C4 11.6569 5.34315 13 7 13V13" stroke="#222222" stroke-width="1.2"/> <path d="M4 22V22C4 20.3431 5.34315 19 7 19V19" stroke="#222222" stroke-width="1.2"/> </g>

</svg>